<svg width="20" height="20" viewBox="0 0 20 20" xmlns="http://www.w3.org/2000/svg">
  <title>
    instagram
  </title>
  <g fill="none" fill-rule="evenodd">
    <path d="M-12-12h44v44h-44z"/>
    <path d="M16.135 0H3.865A3.87 3.87 0 0 0 0 3.865v12.27A3.87 3.87 0 0 0 3.865 20h12.27A3.87 3.87 0 0 0 20 16.135V3.865A3.87 3.87 0 0 0 16.135 0zm1.109 2.306l.442-.002v3.39l-3.38.01-.012-3.39 2.95-.008zM7.146 7.946A3.516 3.516 0 0 1 10 6.48c1.175 0 2.214.581 2.854 1.468.417.578.667 1.286.667 2.053 0 1.94-1.58 3.52-3.521 3.52-1.94 0-3.52-1.58-3.52-3.52 0-.767.25-1.475.666-2.053zm10.906 8.189c0 1.057-.86 1.917-1.917 1.917H3.865a1.919 1.919 0 0 1-1.917-1.917V7.947h2.987A5.429 5.429 0 0 0 4.532 10 5.475 5.475 0 0 0 10 15.47 5.475 5.475 0 0 0 15.47 10c0-.726-.148-1.418-.404-2.053h2.986v8.188z" fill="#000"/>
  </g>
</svg>
