<?xml version="1.0" encoding="utf-8"?>
<!-- Generator: Adobe Illustrator 16.0.4, SVG Export Plug-In . SVG Version: 6.00 Build 0)  -->
<!DOCTYPE svg PUBLIC "-//W3C//DTD SVG 1.1//EN" "http://www.w3.org/Graphics/SVG/1.1/DTD/svg11.dtd">
<svg version="1.1" id="Layer_1" xmlns="http://www.w3.org/2000/svg" xmlns:xlink="http://www.w3.org/1999/xlink" x="0px" y="0px"
	 width="50px" height="50px" viewBox="395.945 272.64 50 50" enable-background="new 395.945 272.64 50 50" xml:space="preserve">
<title>Artboard 1 copy 8</title>
<path d="M444.188,295.785H397.8c-1.025,0-1.855,0.83-1.855,1.855c0,1.025,0.831,1.855,1.855,1.855h46.388
	c1.025,0,1.855-0.83,1.855-1.855C446.043,296.615,445.213,295.785,444.188,295.785z"/>
<path d="M444.188,311.399H397.8c-1.025,0-1.855,0.831-1.855,1.855s0.831,1.855,1.855,1.855h46.388c1.025,0,1.855-0.831,1.855-1.855
	S445.213,311.399,444.188,311.399z"/>
<path d="M397.8,283.882h46.388c1.025,0,1.855-0.832,1.855-1.856c0-1.025-0.83-1.855-1.855-1.855H397.8
	c-1.025,0-1.855,0.831-1.855,1.855C395.945,283.051,396.775,283.882,397.8,283.882z"/>
</svg>
