<?xml version="1.0" encoding="utf-8"?>
<!-- Generator: Adobe Illustrator 16.0.4, SVG Export Plug-In . SVG Version: 6.00 Build 0)  -->
<!DOCTYPE svg PUBLIC "-//W3C//DTD SVG 1.1//EN" "http://www.w3.org/Graphics/SVG/1.1/DTD/svg11.dtd">
<svg version="1.1" id="Layer_1" xmlns="http://www.w3.org/2000/svg" xmlns:xlink="http://www.w3.org/1999/xlink" x="0px" y="0px"
	 width="841.889px" height="595.281px" viewBox="0 0 841.889 595.281" enable-background="new 0 0 841.889 595.281"
	 xml:space="preserve">
<path d="M168.767,549.82c2.224,2.225,5.132,3.334,8.046,3.334c2.913,0,5.821-1.109,8.046-3.334l142.657-142.656
	c38.444,34.557,87.614,53.473,139.692,53.473c55.891,0,108.441-21.768,147.961-61.291c39.525-39.527,61.291-92.076,61.291-147.967
	c0-55.896-21.766-108.441-61.291-147.961c-39.52-39.525-92.07-61.291-147.961-61.291s-108.44,21.766-147.966,61.291
	c-78.886,78.886-81.485,205.599-7.819,287.653L168.767,533.728C164.317,538.172,164.317,545.383,168.767,549.82z M335.335,383.252
	c-72.712-72.723-72.712-191.037,0-263.742c35.229-35.229,82.06-54.628,131.873-54.628s96.645,19.404,131.869,54.628
	c35.229,35.224,54.627,82.055,54.627,131.869c0,49.813-19.404,96.645-54.627,131.874c-35.225,35.225-82.056,54.623-131.869,54.623
	S370.564,418.476,335.335,383.252z"/>
</svg>
