<svg xmlns="http://www.w3.org/2000/svg" data-name="Layer 1" viewBox="0 0 100 125" x="0px" y="0px"><title>Artboard 1 copy 8</title><path d="M75,48H25a2,2,0,0,0,0,4H75a2,2,0,0,0,0-4Z"/><path d="M75,64.83H25a2,2,0,0,0,0,4H75a2,2,0,0,0,0-4Z"/><path d="M25,35.17H75a2,2,0,0,0,0-4H25a2,2,0,0,0,0,4Z"/><text x="0" y="115" fill="#000000" font-size="5px" font-weight="bold" font-family="'Helvetica Neue', Helvetica, Arial-Unicode, Arial, Sans-serif">Created by Giulia Borsi</text><text x="0" y="120" fill="#000000" font-size="5px" font-weight="bold" font-family="'Helvetica Neue', Helvetica, Arial-Unicode, Arial, Sans-serif">from the Noun Project</text></svg>