<?xml version="1.0" encoding="utf-8"?>
<!-- Generator: Adobe Illustrator 16.0.4, SVG Export Plug-In . SVG Version: 6.00 Build 0)  -->
<!DOCTYPE svg PUBLIC "-//W3C//DTD SVG 1.1//EN" "http://www.w3.org/Graphics/SVG/1.1/DTD/svg11.dtd">
<svg version="1.1" id="Layer_1" xmlns="http://www.w3.org/2000/svg" xmlns:xlink="http://www.w3.org/1999/xlink" x="0px" y="0px"
	 width="142px" height="41px" viewBox="0 0 142 41" enable-background="new 0 0 142 41" xml:space="preserve">
<g>
	<path d="M6.547,9.991l15.107,15.827V10.813h2.159v20.247L8.705,15.258v14.929H6.547V9.991z"/>
	<path d="M47.078,20.525c0,5.576-4.575,9.995-10.099,9.995c-5.523,0-10.098-4.419-10.098-9.995c0-5.549,4.575-10.045,10.098-10.045
		C42.503,10.48,47.078,14.976,47.078,20.525z M29.041,20.5c0,4.369,3.545,8.016,7.939,8.016c4.395,0,7.939-3.647,7.939-8.016
		c0-4.394-3.494-8.017-7.939-8.017C32.535,12.483,29.041,16.107,29.041,20.5z"/>
	<path d="M54.03,25.331l6.269-15.52l6.269,15.52l5.088-14.518h2.337l-7.426,20.376l-6.269-15.597L54.03,31.189l-7.426-20.376h2.338
		L54.03,25.331z"/>
	<path d="M76.399,9.991l15.107,15.827V10.813h2.159v20.247L78.558,15.258v14.929h-2.158V9.991z"/>
	<path d="M97.711,10.813h10.047v2.004h-7.889v5.755h7.657v2.004h-7.657v7.605h7.889v2.005H97.711V10.813z"/>
	<path d="M119.518,14.591c-0.771-1.337-1.695-2.107-3.34-2.107c-1.722,0-3.212,1.233-3.212,3.006c0,1.67,1.722,2.441,3.032,3.033
		l1.284,0.564c2.518,1.105,4.651,2.364,4.651,5.447c0,3.392-2.725,5.986-6.09,5.986c-3.108,0-5.422-2.004-6.039-5.009l2.108-0.592
		c0.282,1.979,1.798,3.597,3.88,3.597c2.08,0,3.982-1.593,3.982-3.776c0-2.262-1.773-3.033-3.571-3.855l-1.183-0.514
		c-2.262-1.027-4.215-2.184-4.215-4.958c0-3.006,2.545-4.933,5.422-4.933c2.158,0,3.982,1.104,5.011,3.005L119.518,14.591z"/>
	<path d="M133.18,14.591c-0.771-1.337-1.696-2.107-3.34-2.107c-1.723,0-3.212,1.233-3.212,3.006c0,1.67,1.721,2.441,3.031,3.033
		l1.285,0.564c2.518,1.105,4.65,2.364,4.65,5.447c0,3.392-2.724,5.986-6.089,5.986c-3.109,0-5.422-2.004-6.039-5.009l2.107-0.592
		c0.283,1.979,1.799,3.597,3.88,3.597s3.982-1.593,3.982-3.776c0-2.262-1.772-3.033-3.571-3.855l-1.182-0.514
		c-2.262-1.027-4.215-2.184-4.215-4.958c0-3.006,2.544-4.933,5.422-4.933c2.158,0,3.982,1.104,5.011,3.005L133.18,14.591z"/>
</g>
</svg>
