<svg width="20" height="26" viewBox="0 0 20 26" xmlns="http://www.w3.org/2000/svg">
  <title>
    pinterest
  </title>
  <g fill="none" fill-rule="evenodd">
    <path d="M-12-11h44v44h-44z"/>
    <path d="M0 9.33c0 2.568.967 4.853 3.04 5.705.34.14.644.005.742-.374.069-.262.23-.923.303-1.199.1-.374.06-.505-.214-.832-.597-.71-.98-1.628-.98-2.93 0-3.773 2.806-7.152 7.308-7.152 3.985 0 6.174 2.451 6.174 5.724 0 4.306-1.894 7.94-4.704 7.94-1.554 0-2.715-1.292-2.343-2.876.446-1.892 1.31-3.935 1.31-5.3 0-1.222-.653-2.242-2.001-2.242-1.587 0-2.863 1.652-2.863 3.865 0 1.41.474 2.363.474 2.363l-1.909 8.139c-.566 2.415-.084 5.376-.044 5.674.024.178.25.22.353.087.146-.193 2.035-2.542 2.68-4.887.18-.665 1.042-4.105 1.042-4.105.516.99 2.023 1.86 3.625 1.86C16.764 18.79 20 14.414 20 8.555 20 4.125 16.272 0 10.605 0 3.555 0 0 5.087 0 9.33z" fill="#000"/>
  </g>
</svg>
