<svg width="27" height="23" viewBox="0 0 27 23" xmlns="http://www.w3.org/2000/svg">
  <title>
    reddit
  </title>
  <g fill="none" fill-rule="evenodd">
    <path d="M-8-10h44v44H-8z"/>
    <path d="M10.081 17.797a.373.373 0 0 0-.058.015.526.526 0 0 0-.393.62c.02.106.071.205.147.28 1.121 1.182 2.79 1.37 4.126 1.374H14.004c1.343 0 3.022-.18 4.155-1.374a.548.548 0 0 0 .007-.745.48.48 0 0 0-.412-.155.496.496 0 0 0-.29.167c-.79.833-2.181 1.047-3.417 1.054h-.158c-1.231-.008-2.617-.224-3.403-1.054a.488.488 0 0 0-.405-.182zm7.818-6.365c-.988 0-1.796.85-1.796 1.892 0 1.042.808 1.893 1.796 1.893.987 0 1.795-.85 1.795-1.893 0-1.042-.808-1.892-1.795-1.892zm-7.847 0c-.989 0-1.795.85-1.795 1.892 0 1.042.806 1.893 1.795 1.893.988 0 1.795-.85 1.795-1.893 0-1.042-.807-1.892-1.795-1.892zm13.956-2.244c1.086 0 1.953.915 1.953 2.06 0 .665-.296 1.255-.752 1.634-.424-1.242-1.247-2.365-2.345-3.296.32-.251.709-.398 1.144-.398zm-20.094 0c.41 0 .775.143 1.085.367-1.093.918-1.919 2.027-2.359 3.25a2.09 2.09 0 0 1-.68-1.556c0-1.146.869-2.06 1.954-2.06zm10.004-1.496c2.983 0 5.67.85 7.585 2.167 1.916 1.32 3.026 3.066 3.026 4.961 0 1.896-1.11 3.658-3.026 4.976-1.916 1.318-4.602 2.153-7.585 2.153-2.985 0-5.671-.835-7.587-2.153-1.915-1.318-3.054-3.08-3.054-4.976 0-1.895 1.139-3.642 3.054-4.96 1.916-1.318 4.602-2.168 7.587-2.168zm8.859-6.623c.798 0 1.433.683 1.433 1.526 0 .842-.635 1.511-1.433 1.511-.801 0-1.433-.669-1.433-1.511 0-.843.632-1.526 1.433-1.526zm0-1.068c-1 0-1.871.651-2.243 1.571L15.988.442a.508.508 0 0 0-.16-.03.509.509 0 0 0-.434.382l-1.78 5.86c-2.997.054-5.713.89-7.746 2.26a2.84 2.84 0 0 0-1.954-.78C2.288 8.134.96 9.534.96 11.25c0 1.113.567 2.098 1.405 2.655a5.86 5.86 0 0 0-.088.915c0 2.333 1.393 4.395 3.503 5.847C7.892 22.116 10.757 23 13.918 23c3.16 0 6.024-.883 8.135-2.334 2.111-1.452 3.474-3.514 3.474-5.847 0-.29-.016-.587-.057-.869a3.15 3.15 0 0 0 1.491-2.701c0-1.716-1.326-3.115-2.953-3.115-.769 0-1.458.317-1.984.825-1.939-1.325-4.506-2.161-7.353-2.29l1.534-5.082 4.14 1.023c.008 1.405 1.097 2.549 2.432 2.549 1.34 0 2.432-1.152 2.432-2.565C25.21 1.182 24.115 0 22.777 0z" fill="#000"/>
  </g>
</svg>
