<svg width="14" height="21" viewBox="0 0 14 21" xmlns="http://www.w3.org/2000/svg">
  <title>
    tumblr
  </title>
  <g fill="none" fill-rule="evenodd">
    <path d="M-15-11h44v44h-44z"/>
    <path d="M7.482 0v5.253h5.136v3.263H7.482v5.33c0 1.207.067 1.98.199 2.32.132.345.38.618.743.822.477.276 1.025.413 1.642.413 1.096 0 2.185-.344 3.27-1.027v3.28c-.926.416-1.762.71-2.511.88-.751.17-1.562.252-2.433.252-.991 0-1.865-.12-2.625-.359-.76-.242-1.41-.582-1.945-1.027-.537-.443-.911-.918-1.117-1.417-.208-.5-.311-1.225-.311-2.176v-7.29H0V5.574c.853-.266 1.58-.647 2.187-1.14a5.736 5.736 0 0 0 1.458-1.786c.367-.693.62-1.577.759-2.649h3.078" fill="#000"/>
  </g>
</svg>
