<svg width="20" height="18" viewBox="0 0 20 18" xmlns="http://www.w3.org/2000/svg">
  <title>
    vimeo
  </title>
  <g fill="none" fill-rule="evenodd">
    <path d="M-12-14h44v44h-44z"/>
    <path d="M15.914 12.482C13.195 16.162 10.892 18 9.01 18c-1.164 0-2.15-1.119-2.956-3.363-.54-2.06-1.076-4.119-1.615-6.172-.6-2.245-1.242-3.368-1.929-3.368-.149 0-.67.328-1.568.984L0 4.817c.985-.902 1.957-1.807 2.915-2.71C4.228.923 5.215.301 5.873.236c1.552-.157 2.51.95 2.87 3.319.385 2.557.655 4.146.805 4.77.449 2.119.94 3.176 1.479 3.176.417 0 1.045-.684 1.883-2.054.837-1.373 1.283-2.415 1.344-3.134.12-1.185-.328-1.774-1.344-1.774-.48 0-.973.106-1.48.327.988-3.335 2.87-4.957 5.65-4.862 2.059.06 3.031 1.448 2.91 4.158-.087 2.028-1.449 4.801-4.076 8.32z" fill="#000"/>
  </g>
</svg>
